<svg xmlns="http://www.w3.org/2000/svg" width="1360" height="1780" viewBox="0 0 680 890">
  <rect width="680" height="890" fill="none"/>

  <style>
    text { font-family: 'DejaVu Sans', Arial, sans-serif; fill: #000; }
    .title { font-size: 14px; font-weight: bold; }
    .sub   { font-size: 11px; font-weight: normal; }
    rect.box { fill: #fff; stroke: #000; stroke-width: 0.8; }
    rect.box-dark { fill: #222; stroke: #000; stroke-width: 0.8; }
    rect.box-mid  { fill: #888; stroke: #000; stroke-width: 0.8; }
    rect.box-light{ fill: #ddd; stroke: #000; stroke-width: 0.8; }
    line { stroke: #000; stroke-width: 0.6; }
  </style>

  <!-- ===== ROW 1: OM ===== -->
  <rect class="box-dark" x="255" y="20" width="170" height="44" rx="4"/>
  <text class="title" x="340" y="38" text-anchor="middle" fill="#fff">OM</text>
  <text class="sub"   x="340" y="55" text-anchor="middle" fill="#ccc">Djurino</text>

  <!-- OM connector -->
  <line x1="340" y1="64" x2="340" y2="88"/>
  <line x1="100" y1="88" x2="580" y2="88"/>
  <line x1="100" y1="88" x2="100" y2="108"/>
  <line x1="340" y1="88" x2="340" y2="108"/>
  <line x1="580" y1="88" x2="580" y2="108"/>

  <!-- ===== ROW 2: ADH | TR & BUSDEV | HCD HEAD ===== -->
  <rect class="box-mid" x="28" y="108" width="144" height="44" rx="4"/>
  <text class="title" x="100" y="126" text-anchor="middle" fill="#fff">ADH</text>
  <text class="sub"   x="100" y="143" text-anchor="middle" fill="#eee">Sri Hartini</text>

  <rect class="box-mid" x="252" y="108" width="176" height="44" rx="4"/>
  <text class="title" x="340" y="126" text-anchor="middle" fill="#fff">TR &amp; Busdev Mg.</text>
  <text class="sub"   x="340" y="143" text-anchor="middle" fill="#eee">Faqih Ahmad</text>

  <rect class="box-mid" x="508" y="108" width="144" height="44" rx="4"/>
  <text class="title" x="580" y="126" text-anchor="middle" fill="#fff">HCD Head</text>
  <text class="sub"   x="580" y="143" text-anchor="middle" fill="#eee">Latif Varida</text>

  <!-- TR &amp; BUSDEV -> 3 sub-roles -->
  <line x1="340" y1="152" x2="340" y2="178"/>
  <line x1="216" y1="178" x2="464" y2="178"/>
  <line x1="216" y1="178" x2="216" y2="198"/>
  <line x1="340" y1="178" x2="340" y2="198"/>
  <line x1="464" y1="178" x2="464" y2="198"/>

  <rect class="box-light" x="146" y="198" width="140" height="44" rx="4"/>
  <text class="title" x="216" y="216" text-anchor="middle">Instruktur</text>
  <text class="sub"   x="216" y="233" text-anchor="middle">Sarnubih*</text>

  <rect class="box-light" x="270" y="198" width="140" height="44" rx="4"/>
  <text class="title" x="340" y="216" text-anchor="middle">Busdev Staff</text>
  <text class="sub"   x="340" y="233" text-anchor="middle">Faid Fadjri</text>

  <rect class="box-light" x="394" y="198" width="140" height="44" rx="4"/>
  <text class="title" x="464" y="216" text-anchor="middle">Digital Marketing</text>
  <text class="sub"   x="464" y="233" text-anchor="middle">—</text>

  <!-- ADH -> 5 admin staff row -->
  <line x1="100" y1="152" x2="100" y2="300"/>
  <line x1="22"  y1="300" x2="454" y2="300"/>
  <line x1="22"  y1="300" x2="22"  y2="320"/>
  <line x1="112" y1="300" x2="112" y2="320"/>
  <line x1="224" y1="300" x2="224" y2="320"/>
  <line x1="336" y1="300" x2="336" y2="320"/>
  <line x1="454" y1="300" x2="454" y2="320"/>

  <!-- ADM SERVICE -->
  <rect class="box" x="2"   y="320" width="110" height="152" rx="4"/>
  <text class="title" x="57" y="340" text-anchor="middle">Adm Service</text>
  <text class="sub"   x="57" y="358" text-anchor="middle">Noviyanto</text>
  <text class="sub"   x="57" y="374" text-anchor="middle">Taufik</text>
  <text class="sub"   x="57" y="390" text-anchor="middle">Suryanti</text>
  <text class="sub"   x="57" y="406" text-anchor="middle">Dita Dwi S</text>
  <text class="sub"   x="57" y="422" text-anchor="middle">Siti Faoziah</text>
  <text class="sub"   x="57" y="438" text-anchor="middle">Falilah</text>
  <text class="sub"   x="57" y="454" text-anchor="middle">Falihah</text>

  <!-- ADM FINANCE -->
  <rect class="box" x="92"  y="320" width="110" height="44" rx="4"/>
  <text class="title" x="147" y="338" text-anchor="middle">Adm Finance</text>
  <text class="sub"   x="147" y="355" text-anchor="middle">Rin K</text>

  <!-- ADM PAJAK -->
  <rect class="box" x="204" y="320" width="110" height="44" rx="4"/>
  <text class="title" x="259" y="338" text-anchor="middle">Adm Pajak</text>
  <text class="sub"   x="259" y="355" text-anchor="middle">Agnita Dewi</text>

  <!-- MESSENGER -->
  <rect class="box" x="316" y="320" width="110" height="44" rx="4"/>
  <text class="title" x="371" y="338" text-anchor="middle">Messenger</text>
  <text class="sub"   x="371" y="355" text-anchor="middle">Achmad Aziz</text>

  <!-- IT -->
  <rect class="box" x="434" y="320" width="110" height="56" rx="4"/>
  <text class="title" x="489" y="338" text-anchor="middle">IT</text>
  <text class="sub"   x="489" y="355" text-anchor="middle">Robby Legianto</text>
  <text class="sub"   x="489" y="371" text-anchor="middle">Aditya N.</text>

  <!-- ===== HCD HEAD -> 4 sub-roles ===== -->
  <line x1="580" y1="152" x2="580" y2="490"/>
  <line x1="502" y1="490" x2="652" y2="490"/>
  <line x1="502" y1="490" x2="502" y2="510"/>
  <line x1="548" y1="490" x2="548" y2="510"/>
  <line x1="600" y1="490" x2="600" y2="510"/>
  <line x1="652" y1="490" x2="652" y2="510"/>

  <!-- HCD STAFF -->
  <rect class="box" x="460" y="510" width="108" height="68" rx="4"/>
  <text class="title" x="514" y="528" text-anchor="middle">HCD Staff</text>
  <text class="sub"   x="514" y="545" text-anchor="middle">Irwan. W</text>
  <text class="sub"   x="514" y="560" text-anchor="middle">Sigit P</text>
  <text class="sub"   x="514" y="575" text-anchor="middle">Rahmat Audi</text>

  <!-- MAINTENANCE -->
  <rect class="box" x="516" y="510" width="108" height="56" rx="4"/>
  <text class="title" x="570" y="528" text-anchor="middle">Maintenance</text>
  <text class="sub"   x="570" y="545" text-anchor="middle">Nikholas</text>
  <text class="sub"   x="570" y="560" text-anchor="middle">Basir</text>

  <!-- KOR KEBERSIHAN -->
  <rect class="box" x="568" y="510" width="108" height="44" rx="4"/>
  <text class="title" x="622" y="528" text-anchor="middle">Kor Kebersihan</text>
  <text class="sub"   x="622" y="545" text-anchor="middle">Heru K</text>

  <!-- CHIEF SECURITY -->
  <rect class="box" x="620" y="510" width="108" height="44" rx="4"/>
  <text class="title" x="674" y="528" text-anchor="middle">Chief Security</text>
  <text class="sub"   x="674" y="545" text-anchor="middle">—</text>

  <!-- Security under Kor Kebersihan -->
  <line x1="622" y1="554" x2="622" y2="576"/>
  <rect class="box" x="568" y="576" width="108" height="56" rx="4"/>
  <text class="title" x="622" y="594" text-anchor="middle">Security</text>
  <text class="sub"   x="622" y="611" text-anchor="middle">Saprudin</text>
  <text class="sub"   x="622" y="627" text-anchor="middle">Kary Koperasi</text>

  <!-- Security under Chief Security -->
  <line x1="674" y1="554" x2="674" y2="576"/>
  <rect class="box" x="622" y="576" width="108" height="124" rx="4"/>
  <text class="title" x="676" y="594" text-anchor="middle">Security</text>
  <text class="sub"   x="676" y="611" text-anchor="middle">Sukamto</text>
  <text class="sub"   x="676" y="626" text-anchor="middle">Rian</text>
  <text class="sub"   x="676" y="641" text-anchor="middle">Ali</text>
  <text class="sub"   x="676" y="656" text-anchor="middle">Ozi</text>
  <text class="sub"   x="676" y="671" text-anchor="middle">Syafii</text>
  <text class="sub"   x="676" y="686" text-anchor="middle">Iman</text>
</svg>
